<svg width="150" height="130" viewBox="0 0 150 130" fill="none" xmlns="http://www.w3.org/2000/svg">
<g clip-path="url(#clip0_148_47921)">
<g opacity="0.7">
<g filter="url(#filter0_f_148_47921)">
<path d="M85.0005 104.499C85.0005 104.499 45.6853 118.805 31.5005 104.499C15.3616 88.2226 30.8888 67.5059 41.5005 54.9992C54.0072 40.2592 82.5005 62.4992 82.5005 62.4992L85.0005 104.499Z" fill="#E35273"/>
</g>
<g opacity="0.7" filter="url(#filter1_f_148_47921)">
<path d="M69 27.5002C69 27.5002 110.258 11.6904 123.5 32.5C135.235 50.9416 115 81.5003 115 81.5003L73 73.9999L69 27.5002Z" fill="#8695A1"/>
</g>
</g>
<rect x="45" y="28" width="61" height="73" rx="2" fill="white"/>
<rect x="45" y="28" width="61" height="73" rx="2" stroke="#133F5D" stroke-miterlimit="10"/>
<ellipse cx="58.1703" cy="42.7402" rx="6.23864" ry="6.31731" fill="#C9E4AA"/>
<path d="M87.9771 37.8271L97.7168 37.8276" stroke="#D1E5F4" stroke-linecap="round" stroke-linejoin="round"/>
<path d="M87.9771 42.0381L97.7168 42.0385" stroke="#D1E5F4" stroke-linecap="round" stroke-linejoin="round"/>
<path d="M92.1362 85.5576H97.6817" stroke="#D1E5F4" stroke-linecap="round" stroke-linejoin="round"/>
<path d="M54.7046 57.4805H63.0228" stroke="#D1E5F4" stroke-linecap="round" stroke-linejoin="round"/>
<path d="M87.9771 46.25L97.7168 46.2504" stroke="#D1E5F4" stroke-linecap="round" stroke-linejoin="round"/>
<path d="M87.9771 92.5771L97.7168 92.5776" stroke="#D1E5F4" stroke-linecap="round" stroke-linejoin="round"/>
<path d="M54.7046 61.6924H63.0228" stroke="#D1E5F4" stroke-linecap="round" stroke-linejoin="round"/>
<path d="M54.7046 74.3271H61.6364" stroke="#D1E5F4" stroke-linecap="round" stroke-linejoin="round"/>
<path d="M67.1816 74.3271H74.1135" stroke="#D1E5F4" stroke-linecap="round" stroke-linejoin="round"/>
<path d="M79.6592 74.3271H94.9092" stroke="#D1E5F4" stroke-linecap="round" stroke-linejoin="round"/>
<rect x="51.9316" y="67.3076" width="45.75" height="4.21154" rx="1" fill="#D1E5F4"/>
<rect x="51.9316" y="67.3076" width="45.75" height="11.2308" rx="1" stroke="#A4CCE9" stroke-miterlimit="10"/>
<path d="M78 62.5559C78 60.899 79.3431 59.5559 81 59.5559H86.8889H89.6667H106.333H109.111H115C116.657 59.5559 118 60.899 118 62.5559V63.9637C118 65.6205 116.657 66.9637 115 66.9637H114.667H111.889H109.111H106.333H103.556H100.778H98H95.2222H92.4444H89.6667H86.8889H84.1111H81.3333H81C79.3431 66.9637 78 65.6205 78 63.9637V62.5559Z" fill="#D1E5F4"/>
<path fill-rule="evenodd" clip-rule="evenodd" d="M86.8889 66.9637H84.1111H81.3333L83.9757 103.146C84.052 104.191 84.9223 105 85.9704 105H87.5833H91.0556H94.5278H96.2639H98H99.7361H101.472H104.944H108.417H110.03C111.078 105 111.948 104.191 112.024 103.146L114.667 66.9637H111.889H109.111H106.333H103.556H100.778H98H95.2222H92.4444H89.6667H86.8889ZM91.089 75.9285C91.0463 74.8557 90.1642 74.0081 89.0906 74.0081H87.9304C86.7475 74.0081 85.823 75.0292 85.9402 76.2062L87.9809 96.7038C88.0811 97.7102 88.9278 98.4767 89.9391 98.4767C91.0567 98.4767 91.9499 97.5472 91.9055 96.4305L91.089 75.9285ZM100.584 76.0678C100.618 74.9403 99.7129 74.0081 98.585 74.0081H97.415C96.2871 74.0081 95.3823 74.9403 95.4159 76.0678L96.0281 96.5628C96.0599 97.629 96.9334 98.4767 98 98.4767C99.0666 98.4767 99.9401 97.629 99.9719 96.5628L100.584 76.0678ZM110.06 76.2062C110.177 75.0292 109.253 74.0081 108.07 74.0081H106.909C105.836 74.0081 104.954 74.8557 104.911 75.9285L104.095 96.4305C104.05 97.5472 104.943 98.4767 106.061 98.4767C107.072 98.4767 107.919 97.7102 108.019 96.7038L110.06 76.2062Z" fill="white"/>
<path d="M95.4159 76.0678C95.3823 74.9403 96.2871 74.0081 97.415 74.0081H98.585C99.7129 74.0081 100.618 74.9403 100.584 76.0678L99.9719 96.5628C99.9401 97.629 99.0666 98.4767 98 98.4767C96.9334 98.4767 96.0599 97.629 96.0281 96.5628L95.4159 76.0678Z" fill="#D0D9DF"/>
<path d="M85.9402 76.2062C85.823 75.0292 86.7475 74.0081 87.9304 74.0081H89.0906C90.1642 74.0081 91.0463 74.8557 91.089 75.9285L91.9055 96.4305C91.9499 97.5472 91.0567 98.4767 89.9391 98.4767C88.9278 98.4767 88.0811 97.7102 87.9809 96.7038L85.9402 76.2062Z" fill="#D0D9DF"/>
<path d="M104.911 75.9285C104.954 74.8557 105.836 74.0081 106.909 74.0081H108.07C109.253 74.0081 110.177 75.0292 110.06 76.2062L108.019 96.7038C107.919 97.7102 107.072 98.4767 106.061 98.4767C104.943 98.4767 104.05 97.5472 104.095 96.4305L104.911 75.9285Z" fill="#D0D9DF"/>
<path d="M89.3889 54C88.0082 54 86.8889 55.1193 86.8889 56.5V59.5559H89.6667V57.3721C89.6667 56.8198 90.1144 56.3721 90.6667 56.3721H105.333C105.886 56.3721 106.333 56.8198 106.333 57.3721V59.5559H109.111V56.5C109.111 55.1193 107.992 54 106.611 54H89.3889Z" fill="#133F5D"/>
<path d="M114.667 66.9637H115C116.657 66.9637 118 65.6205 118 63.9637V62.5559C118 60.899 116.657 59.5559 115 59.5559H109.111M114.667 66.9637H111.889H109.111H106.333H103.556H100.778H98H95.2222H92.4444H89.6667H86.8889H84.1111H81.3333M114.667 66.9637L112.024 103.146C111.948 104.191 111.078 105 110.03 105H108.417H104.944H101.472H99.7361H98H96.2639H94.5278H91.0556H87.5833H85.9704C84.9223 105 84.052 104.191 83.9757 103.146L81.3333 66.9637M81.3333 66.9637H81C79.3431 66.9637 78 65.6205 78 63.9637V62.5559C78 60.899 79.3431 59.5559 81 59.5559H86.8889M86.8889 59.5559V56.5C86.8889 55.1193 88.0082 54 89.3889 54H106.611C107.992 54 109.111 55.1193 109.111 56.5V59.5559M86.8889 59.5559H89.6667M109.111 59.5559H106.333M89.6667 59.5559V57.3721C89.6667 56.8198 90.1144 56.3721 90.6667 56.3721H105.333C105.886 56.3721 106.333 56.8198 106.333 57.3721V59.5559M89.6667 59.5559H106.333M108.019 96.7038L110.06 76.2062C110.177 75.0292 109.253 74.0081 108.07 74.0081H106.909C105.836 74.0081 104.954 74.8557 104.911 75.9285L104.095 96.4305C104.05 97.5472 104.943 98.4767 106.061 98.4767V98.4767C107.072 98.4767 107.919 97.7102 108.019 96.7038ZM99.9719 96.5628L100.584 76.0678C100.618 74.9403 99.7129 74.0081 98.585 74.0081H97.415C96.2871 74.0081 95.3823 74.9403 95.4159 76.0678L96.0281 96.5628C96.0599 97.629 96.9334 98.4767 98 98.4767V98.4767C99.0666 98.4767 99.9401 97.629 99.9719 96.5628ZM91.9055 96.4305L91.089 75.9285C91.0463 74.8557 90.1642 74.0081 89.0906 74.0081H87.9304C86.7475 74.0081 85.823 75.0292 85.9402 76.2062L87.9809 96.7038C88.0811 97.7102 88.9278 98.4767 89.9391 98.4767V98.4767C91.0567 98.4767 91.9499 97.5472 91.9055 96.4305Z" stroke="#133F5D"/>
<rect x="64" y="89" width="22" height="22" rx="11" fill="#E35273"/>
<rect x="64" y="89" width="22" height="22" rx="11" stroke="#133F5D" stroke-miterlimit="10"/>
<path d="M71.3335 96.333L78.6668 103.666M78.6668 96.333L71.3335 103.666" stroke="white" stroke-width="2" stroke-linecap="round" stroke-linejoin="round"/>
</g>
<defs>
<filter id="filter0_f_148_47921" x="-2.46924" y="22.9521" width="114.47" height="114.905" filterUnits="userSpaceOnUse" color-interpolation-filters="sRGB">
<feFlood flood-opacity="0" result="BackgroundImageFix"/>
<feBlend mode="normal" in="SourceGraphic" in2="BackgroundImageFix" result="shape"/>
<feGaussianBlur stdDeviation="13.5" result="effect1_foregroundBlur_148_47921"/>
</filter>
<filter id="filter1_f_148_47921" x="42" y="-5.25" width="112.161" height="113.75" filterUnits="userSpaceOnUse" color-interpolation-filters="sRGB">
<feFlood flood-opacity="0" result="BackgroundImageFix"/>
<feBlend mode="normal" in="SourceGraphic" in2="BackgroundImageFix" result="shape"/>
<feGaussianBlur stdDeviation="13.5" result="effect1_foregroundBlur_148_47921"/>
</filter>
<clipPath id="clip0_148_47921">
<rect width="150" height="130" fill="white"/>
</clipPath>
</defs>
</svg>
